<svg width="116" height="48" viewBox="0 0 116 48" fill="none" xmlns="http://www.w3.org/2000/svg">
<g filter="url(#filter0_di_102_1470)">
<rect x="2.5" y="2" width="107" height="40" rx="10" fill="#C5E5D6" shape-rendering="crispEdges"/>
<rect x="3.5" y="3" width="105" height="38" rx="9" stroke="#009B55" stroke-width="2" shape-rendering="crispEdges"/>
<g filter="url(#filter1_d_102_1470)">
<path d="M22.1846 20.32C21.9819 19.9467 21.6886 19.664 21.3046 19.472C20.9312 19.2693 20.4886 19.168 19.9766 19.168C19.0912 19.168 18.3819 19.4613 17.8486 20.048C17.3152 20.624 17.0486 21.3973 17.0486 22.368C17.0486 23.4027 17.3259 24.2133 17.8806 24.8C18.4459 25.376 19.2192 25.664 20.2006 25.664C20.8726 25.664 21.4379 25.4933 21.8966 25.152C22.3659 24.8107 22.7072 24.32 22.9206 23.68H19.4486V21.664H25.4006V24.208C25.1979 24.8907 24.8512 25.5253 24.3606 26.112C23.8806 26.6987 23.2672 27.1733 22.5206 27.536C21.7739 27.8987 20.9312 28.08 19.9926 28.08C18.8832 28.08 17.8912 27.84 17.0166 27.36C16.1526 26.8693 15.4752 26.192 14.9846 25.328C14.5046 24.464 14.2646 23.4773 14.2646 22.368C14.2646 21.2587 14.5046 20.272 14.9846 19.408C15.4752 18.5333 16.1526 17.856 17.0166 17.376C17.8806 16.8853 18.8672 16.64 19.9766 16.64C21.3206 16.64 22.4512 16.9653 23.3686 17.616C24.2966 18.2667 24.9099 19.168 25.2086 20.32H22.1846ZM37.1881 16.768L33.3001 24.288V28H30.5641V24.288L26.6761 16.768H29.7801L31.9561 21.472L34.1161 16.768H37.1881ZM51.6504 16.768V28H48.9144V21.264L46.4024 28H44.1944L41.6664 21.248V28H38.9304V16.768H42.1624L45.3144 24.544L48.4344 16.768H51.6504ZM70.2086 16.88V28H68.3846V20.384L64.9926 28H63.7286L60.3206 20.384V28H58.4966V16.88H60.4646L64.3686 25.6L68.2566 16.88H70.2086ZM81.3259 23.376C81.3259 23.7067 81.3046 24.0053 81.2619 24.272H74.5259C74.5793 24.976 74.8406 25.5413 75.3099 25.968C75.7793 26.3947 76.3553 26.608 77.0379 26.608C78.0193 26.608 78.7126 26.1973 79.1179 25.376H81.0859C80.8193 26.1867 80.3339 26.8533 79.6299 27.376C78.9366 27.888 78.0726 28.144 77.0379 28.144C76.1953 28.144 75.4379 27.9573 74.7659 27.584C74.1046 27.2 73.5819 26.6667 73.1979 25.984C72.8246 25.2907 72.6379 24.4907 72.6379 23.584C72.6379 22.6773 72.8193 21.8827 73.1819 21.2C73.5553 20.5067 74.0726 19.9733 74.7339 19.6C75.4059 19.2267 76.1739 19.04 77.0379 19.04C77.8699 19.04 78.6113 19.2213 79.2619 19.584C79.9126 19.9467 80.4193 20.4587 80.7819 21.12C81.1446 21.7707 81.3259 22.5227 81.3259 23.376ZM79.4219 22.8C79.4113 22.128 79.1713 21.5893 78.7019 21.184C78.2326 20.7787 77.6513 20.576 76.9579 20.576C76.3286 20.576 75.7899 20.7787 75.3419 21.184C74.8939 21.5787 74.6273 22.1173 74.5419 22.8H79.4219ZM83.1529 23.552C83.1529 22.6667 83.3343 21.8827 83.6969 21.2C84.0703 20.5173 84.5716 19.9893 85.2009 19.616C85.8409 19.232 86.5449 19.04 87.3129 19.04C88.0063 19.04 88.6089 19.1787 89.1209 19.456C89.6436 19.7227 90.0596 20.0587 90.3689 20.464V19.184H92.2089V28H90.3689V26.688C90.0596 27.104 89.6383 27.4507 89.1049 27.728C88.5716 28.0053 87.9636 28.144 87.2809 28.144C86.5236 28.144 85.8303 27.952 85.2009 27.568C84.5716 27.1733 84.0703 26.6293 83.6969 25.936C83.3343 25.232 83.1529 24.4373 83.1529 23.552ZM90.3689 23.584C90.3689 22.976 90.2409 22.448 89.9849 22C89.7396 21.552 89.4143 21.2107 89.0089 20.976C88.6036 20.7413 88.1663 20.624 87.6969 20.624C87.2276 20.624 86.7903 20.7413 86.3849 20.976C85.9796 21.2 85.6489 21.536 85.3929 21.984C85.1476 22.4213 85.0249 22.944 85.0249 23.552C85.0249 24.16 85.1476 24.6933 85.3929 25.152C85.6489 25.6107 85.9796 25.9627 86.3849 26.208C86.8009 26.4427 87.2383 26.56 87.6969 26.56C88.1663 26.56 88.6036 26.4427 89.0089 26.208C89.4143 25.9733 89.7396 25.632 89.9849 25.184C90.2409 24.7253 90.3689 24.192 90.3689 23.584ZM97.0687 16.16V28H95.2447V16.16H97.0687Z" fill="#009B55"/>
</g>
</g>
<defs>
<filter id="filter0_di_102_1470" x="0.5" y="-2" width="115" height="50" filterUnits="userSpaceOnUse" color-interpolation-filters="sRGB">
<feFlood flood-opacity="0" result="BackgroundImageFix"/>
<feColorMatrix in="SourceAlpha" type="matrix" values="0 0 0 0 0 0 0 0 0 0 0 0 0 0 0 0 0 0 127 0" result="hardAlpha"/>
<feOffset dx="2" dy="2"/>
<feGaussianBlur stdDeviation="2"/>
<feComposite in2="hardAlpha" operator="out"/>
<feColorMatrix type="matrix" values="0 0 0 0 0.1 0 0 0 0 0.1 0 0 0 0 0.1 0 0 0 0.24 0"/>
<feBlend mode="normal" in2="BackgroundImageFix" result="effect1_dropShadow_102_1470"/>
<feBlend mode="normal" in="SourceGraphic" in2="effect1_dropShadow_102_1470" result="shape"/>
<feColorMatrix in="SourceAlpha" type="matrix" values="0 0 0 0 0 0 0 0 0 0 0 0 0 0 0 0 0 0 127 0" result="hardAlpha"/>
<feOffset dy="-4"/>
<feGaussianBlur stdDeviation="2"/>
<feComposite in2="hardAlpha" operator="arithmetic" k2="-1" k3="1"/>
<feColorMatrix type="matrix" values="0 0 0 0 0.1 0 0 0 0 0.1 0 0 0 0 0.1 0 0 0 0.24 0"/>
<feBlend mode="normal" in2="shape" result="effect2_innerShadow_102_1470"/>
</filter>
<filter id="filter1_d_102_1470" x="13.2646" y="15.16" width="86.804" height="15.984" filterUnits="userSpaceOnUse" color-interpolation-filters="sRGB">
<feFlood flood-opacity="0" result="BackgroundImageFix"/>
<feColorMatrix in="SourceAlpha" type="matrix" values="0 0 0 0 0 0 0 0 0 0 0 0 0 0 0 0 0 0 127 0" result="hardAlpha"/>
<feOffset dx="1" dy="1"/>
<feGaussianBlur stdDeviation="1"/>
<feComposite in2="hardAlpha" operator="out"/>
<feColorMatrix type="matrix" values="0 0 0 0 0 0 0 0 0 0 0 0 0 0 0 0 0 0 0.24 0"/>
<feBlend mode="normal" in2="BackgroundImageFix" result="effect1_dropShadow_102_1470"/>
<feBlend mode="normal" in="SourceGraphic" in2="effect1_dropShadow_102_1470" result="shape"/>
</filter>
</defs>
</svg>
