<svg width="281" height="76" viewBox="0 0 281 76" fill="none" xmlns="http://www.w3.org/2000/svg">
<rect x="1.29419" y="0.5" width="279.183" height="75" rx="19.5" fill="#E8F5EC"/>
<rect x="1.29419" y="0.5" width="279.183" height="75" rx="19.5" stroke="#0A925B"/>
<path fill-rule="evenodd" clip-rule="evenodd" d="M63.1721 37.2371C60.3858 37.6316 59.2815 38.0344 58.3558 39.1555C51.9943 36.9654 48.1311 37.4552 40.8867 40.38C41.4996 36.2985 41.6582 34.304 41.5805 31.3189L44.1774 24.6074L44.7233 23.1965C45.1033 23.5205 45.4634 23.8004 45.8144 24.0376C47.6288 25.2637 49.2009 25.35 52.0294 24.5027C53.5396 25.8495 57.7436 22.7475 57.3354 21.2374C57.3883 20.947 57.4292 20.6658 57.4577 20.3909C57.4794 20.1814 57.4939 19.9756 57.5009 19.7721C57.525 19.071 57.4603 18.3971 57.2968 17.6964C56.9526 16.2214 56.1705 14.6275 54.8563 12.409C54.4694 11.7559 53.7844 11.6463 53.2378 11.9093C51.4864 12.7518 45.321 13.8646 43.3665 13.8093C37.6651 16.8418 24.274 37.2371 25.1709 46.6357C18.9103 51.4987 30.4126 56.357 35.8107 55.6096C38.5094 58.8978 41.5665 59.5417 50.0121 58.3502L40.8867 63.633L18.7516 50.8442V25.194L40.8867 12.409L42.4464 13.2891L47.9793 12.1583L40.8867 8L14.7942 23.1965V52.9704L40.8867 68L66.8652 52.9704V23.1965L61.7155 20.0621L58.2994 21.2374V22.3038L63.1566 25.1328L63.1721 37.2371ZM62.4969 45.4485C62.2855 43.7454 61.7301 42.5564 59.9922 40.0814C64.9864 43.0093 65.8576 47.241 60.5465 51.042C57.1648 51.2236 55.3261 51.2028 52.1104 50.8183C53.2663 52.0501 54.1202 52.623 56.0508 53.3898C47.1369 56.8018 36.9131 55.6096 33.1215 50.8442C32.9475 51.9489 33.1514 52.5681 33.8314 53.6738C26.0936 52.396 24.0877 47.6816 30.041 46.6357C25.9386 41.8807 31.207 29.4497 43.9743 15.431C46.5025 15.4972 52.4595 13.9907 53.3547 13.3103C55.2743 13.5714 56.3339 16.4893 56.5182 20.82L55.8272 21.3268C55.8272 20.2835 55.6388 19.3844 55.4546 18.5048C55.2781 17.6623 55.1054 16.8376 55.1054 15.9211C54.7126 16.0397 54.7829 18.4089 55.1054 21.8182C54.321 22.5452 54.0167 22.6906 53.8154 22.3038L53.7539 16.0439C53.2034 16.6042 53.1602 17.5902 53.0993 18.9836C53.0683 19.6909 53.0328 20.5032 52.924 21.418C53.1907 23.5981 49.8291 23.7658 48.9097 22.9602L50.9513 22.1888L50.897 19.62C49.9073 20.1 49.393 20.0714 48.5274 19.62C47.2625 21.4172 46.4013 21.635 44.6012 20.6654C44.4617 21.1585 44.3111 21.5986 44.1208 22.0356C43.707 22.9857 43.1051 23.9218 42.0185 25.3588C41.1776 26.1503 40.7554 27.3374 40.283 28.6654C39.5275 30.7895 38.6438 33.2738 35.714 35.0746C37.3242 35.0746 38.2755 34.2672 38.9236 33.7172C39.5606 33.1765 39.9047 32.8845 40.2936 33.8522C39.8112 37.722 36.6627 42.1721 32.5602 44.3353C36.1959 44.457 39.3765 43.4116 42.4819 42.3909C48.5111 40.4092 54.2564 38.5209 62.4969 45.4485Z" fill="#0A925B"/>
<path d="M38.4204 26.5101L42.0185 25.3588C43.1051 23.9218 43.707 22.9857 44.1208 22.0356L37.6873 24.2108C37.3541 24.9773 37.6873 26.1769 38.4204 26.5101Z" fill="#0A925B"/>
<path d="M44.7233 23.1965L44.1774 24.6074L45.8144 24.0376C45.4634 23.8004 45.1033 23.5205 44.7233 23.1965Z" fill="#0A925B"/>
<path d="M57.5009 19.7721L59.8879 18.9836C62.4885 19.6222 63.5289 19.6177 64.6832 18.9836L70.9769 16.4555L70.8152 15.9702L64.5056 17.9396L64.423 17.6964L63.2814 17.973L70.4916 15.0918L70.262 14.5618L63.9823 16.5032L63.841 16.1499L62.7104 16.3442L69.8734 13.5373L69.6614 13.025L63.417 14.8957L63.2814 14.6343L62.1378 14.8381L69.3881 12.1583L69.1923 11.6688L61.7155 13.8291C60.3598 14.6139 59.7717 15.3017 58.9784 16.8969L57.2968 17.6964C57.4603 18.3971 57.525 19.071 57.5009 19.7721Z" fill="#0A925B"/>
<path d="M92.8491 25.12C92.4171 24.288 91.8171 23.664 91.0491 23.248C90.2811 22.816 89.3931 22.6 88.3851 22.6C87.2811 22.6 86.2971 22.848 85.4331 23.344C84.5691 23.84 83.8891 24.544 83.3931 25.456C82.9131 26.368 82.6731 27.424 82.6731 28.624C82.6731 29.824 82.9131 30.888 83.3931 31.816C83.8891 32.728 84.5691 33.432 85.4331 33.928C86.2971 34.424 87.2811 34.672 88.3851 34.672C89.8731 34.672 91.0811 34.256 92.0091 33.424C92.9371 32.592 93.5051 31.464 93.7131 30.04H87.4491V27.856H96.6411V29.992C96.4651 31.288 96.0011 32.48 95.2491 33.568C94.5131 34.656 93.5451 35.528 92.3451 36.184C91.1611 36.824 89.8411 37.144 88.3851 37.144C86.8171 37.144 85.3851 36.784 84.0891 36.064C82.7931 35.328 81.7611 34.312 80.9931 33.016C80.2411 31.72 79.8651 30.256 79.8651 28.624C79.8651 26.992 80.2411 25.528 80.9931 24.232C81.7611 22.936 82.7931 21.928 84.0891 21.208C85.4011 20.472 86.8331 20.104 88.3851 20.104C90.1611 20.104 91.7371 20.544 93.1131 21.424C94.5051 22.288 95.5131 23.52 96.1371 25.12H92.8491ZM112.66 20.32L107.14 30.952V37H104.404V30.952L98.8595 20.32H101.908L105.772 28.504L109.636 20.32H112.66ZM133.359 20.32V37H130.623V25.576L125.535 37H123.639L118.527 25.576V37H115.791V20.32H118.743L124.599 33.4L130.431 20.32H133.359ZM162.677 20.32V37H159.941V25.576L154.853 37H152.957L147.845 25.576V37H145.109V20.32H148.061L153.917 33.4L159.749 20.32H162.677ZM179.353 30.064C179.353 30.56 179.321 31.008 179.257 31.408H169.153C169.233 32.464 169.625 33.312 170.329 33.952C171.033 34.592 171.897 34.912 172.921 34.912C174.393 34.912 175.433 34.296 176.041 33.064H178.993C178.593 34.28 177.865 35.28 176.809 36.064C175.769 36.832 174.473 37.216 172.921 37.216C171.657 37.216 170.521 36.936 169.513 36.376C168.521 35.8 167.737 35 167.161 33.976C166.601 32.936 166.321 31.736 166.321 30.376C166.321 29.016 166.593 27.824 167.137 26.8C167.697 25.76 168.473 24.96 169.465 24.4C170.473 23.84 171.625 23.56 172.921 23.56C174.169 23.56 175.281 23.832 176.257 24.376C177.233 24.92 177.993 25.688 178.537 26.68C179.081 27.656 179.353 28.784 179.353 30.064ZM176.497 29.2C176.481 28.192 176.121 27.384 175.417 26.776C174.713 26.168 173.841 25.864 172.801 25.864C171.857 25.864 171.049 26.168 170.377 26.776C169.705 27.368 169.305 28.176 169.177 29.2H176.497ZM182.094 30.328C182.094 29 182.366 27.824 182.91 26.8C183.47 25.776 184.222 24.984 185.166 24.424C186.126 23.848 187.182 23.56 188.334 23.56C189.374 23.56 190.278 23.768 191.046 24.184C191.83 24.584 192.454 25.088 192.918 25.696V23.776H195.678V37H192.918V35.032C192.454 35.656 191.822 36.176 191.022 36.592C190.222 37.008 189.31 37.216 188.286 37.216C187.15 37.216 186.11 36.928 185.166 36.352C184.222 35.76 183.47 34.944 182.91 33.904C182.366 32.848 182.094 31.656 182.094 30.328ZM192.918 30.376C192.918 29.464 192.726 28.672 192.342 28C191.974 27.328 191.486 26.816 190.878 26.464C190.27 26.112 189.614 25.936 188.91 25.936C188.206 25.936 187.55 26.112 186.942 26.464C186.334 26.8 185.838 27.304 185.454 27.976C185.086 28.632 184.902 29.416 184.902 30.328C184.902 31.24 185.086 32.04 185.454 32.728C185.838 33.416 186.334 33.944 186.942 34.312C187.566 34.664 188.222 34.84 188.91 34.84C189.614 34.84 190.27 34.664 190.878 34.312C191.486 33.96 191.974 33.448 192.342 32.776C192.726 32.088 192.918 31.288 192.918 30.376ZM202.967 19.24V37H200.231V19.24H202.967Z" fill="#0A925B"/>
<path d="M88.3851 51.696V60H87.2931V53.808L84.5331 60H83.7651L80.9931 53.796V60H79.9011V51.696H81.0771L84.1491 58.56L87.2211 51.696H88.3851ZM96.717 56.46C96.717 56.668 96.705 56.888 96.681 57.12H91.425C91.465 57.768 91.685 58.276 92.085 58.644C92.493 59.004 92.985 59.184 93.561 59.184C94.033 59.184 94.425 59.076 94.737 58.86C95.057 58.636 95.281 58.34 95.409 57.972H96.585C96.409 58.604 96.057 59.12 95.529 59.52C95.001 59.912 94.345 60.108 93.561 60.108C92.937 60.108 92.377 59.968 91.881 59.688C91.393 59.408 91.009 59.012 90.729 58.5C90.449 57.98 90.309 57.38 90.309 56.7C90.309 56.02 90.445 55.424 90.717 54.912C90.989 54.4 91.369 54.008 91.857 53.736C92.353 53.456 92.921 53.316 93.561 53.316C94.185 53.316 94.737 53.452 95.217 53.724C95.697 53.996 96.065 54.372 96.321 54.852C96.585 55.324 96.717 55.86 96.717 56.46ZM95.589 56.232C95.589 55.816 95.497 55.46 95.313 55.164C95.129 54.86 94.877 54.632 94.557 54.48C94.245 54.32 93.897 54.24 93.513 54.24C92.961 54.24 92.489 54.416 92.097 54.768C91.713 55.12 91.493 55.608 91.437 56.232H95.589ZM98.2304 56.688C98.2304 56.016 98.3664 55.428 98.6384 54.924C98.9104 54.412 99.2824 54.016 99.7544 53.736C100.234 53.456 100.766 53.316 101.35 53.316C101.926 53.316 102.426 53.44 102.85 53.688C103.274 53.936 103.59 54.248 103.798 54.624V53.424H104.902V60H103.798V58.776C103.582 59.16 103.258 59.48 102.826 59.736C102.402 59.984 101.906 60.108 101.338 60.108C100.754 60.108 100.226 59.964 99.7544 59.676C99.2824 59.388 98.9104 58.984 98.6384 58.464C98.3664 57.944 98.2304 57.352 98.2304 56.688ZM103.798 56.7C103.798 56.204 103.698 55.772 103.498 55.404C103.298 55.036 103.026 54.756 102.682 54.564C102.346 54.364 101.974 54.264 101.566 54.264C101.158 54.264 100.786 54.36 100.45 54.552C100.114 54.744 99.8464 55.024 99.6464 55.392C99.4464 55.76 99.3464 56.192 99.3464 56.688C99.3464 57.192 99.4464 57.632 99.6464 58.008C99.8464 58.376 100.114 58.66 100.45 58.86C100.786 59.052 101.158 59.148 101.566 59.148C101.974 59.148 102.346 59.052 102.682 58.86C103.026 58.66 103.298 58.376 103.498 58.008C103.698 57.632 103.798 57.196 103.798 56.7ZM108.32 51.12V60H107.228V51.12H108.32ZM112.989 60.108C112.485 60.108 112.033 60.024 111.633 59.856C111.233 59.68 110.917 59.44 110.685 59.136C110.453 58.824 110.325 58.468 110.301 58.068H111.429C111.461 58.396 111.613 58.664 111.885 58.872C112.165 59.08 112.529 59.184 112.977 59.184C113.393 59.184 113.721 59.092 113.961 58.908C114.201 58.724 114.321 58.492 114.321 58.212C114.321 57.924 114.193 57.712 113.937 57.576C113.681 57.432 113.285 57.292 112.749 57.156C112.261 57.028 111.861 56.9 111.549 56.772C111.245 56.636 110.981 56.44 110.757 56.184C110.541 55.92 110.433 55.576 110.433 55.152C110.433 54.816 110.533 54.508 110.733 54.228C110.933 53.948 111.217 53.728 111.585 53.568C111.953 53.4 112.373 53.316 112.845 53.316C113.573 53.316 114.161 53.5 114.609 53.868C115.057 54.236 115.297 54.74 115.329 55.38H114.237C114.213 55.036 114.073 54.76 113.817 54.552C113.569 54.344 113.233 54.24 112.809 54.24C112.417 54.24 112.105 54.324 111.873 54.492C111.641 54.66 111.525 54.88 111.525 55.152C111.525 55.368 111.593 55.548 111.729 55.692C111.873 55.828 112.049 55.94 112.257 56.028C112.473 56.108 112.769 56.2 113.145 56.304C113.617 56.432 114.001 56.56 114.297 56.688C114.593 56.808 114.845 56.992 115.053 57.24C115.269 57.488 115.381 57.812 115.389 58.212C115.389 58.572 115.289 58.896 115.089 59.184C114.889 59.472 114.605 59.7 114.237 59.868C113.877 60.028 113.461 60.108 112.989 60.108ZM122.422 54.324V58.2C122.422 58.52 122.49 58.748 122.626 58.884C122.762 59.012 122.998 59.076 123.334 59.076H124.138V60H123.154C122.546 60 122.09 59.86 121.786 59.58C121.482 59.3 121.33 58.84 121.33 58.2V54.324H120.478V53.424H121.33V51.768H122.422V53.424H124.138V54.324H122.422ZM129.205 53.304C129.701 53.304 130.149 53.412 130.549 53.628C130.949 53.836 131.261 54.152 131.485 54.576C131.717 55 131.833 55.516 131.833 56.124V60H130.753V56.28C130.753 55.624 130.589 55.124 130.261 54.78C129.933 54.428 129.485 54.252 128.917 54.252C128.341 54.252 127.881 54.432 127.537 54.792C127.201 55.152 127.033 55.676 127.033 56.364V60H125.941V51.12H127.033V54.36C127.249 54.024 127.545 53.764 127.921 53.58C128.305 53.396 128.733 53.304 129.205 53.304ZM133.689 56.688C133.689 56.016 133.825 55.428 134.097 54.924C134.369 54.412 134.741 54.016 135.213 53.736C135.693 53.456 136.225 53.316 136.809 53.316C137.385 53.316 137.885 53.44 138.309 53.688C138.733 53.936 139.049 54.248 139.257 54.624V53.424H140.361V60H139.257V58.776C139.041 59.16 138.717 59.48 138.285 59.736C137.861 59.984 137.365 60.108 136.797 60.108C136.213 60.108 135.685 59.964 135.213 59.676C134.741 59.388 134.369 58.984 134.097 58.464C133.825 57.944 133.689 57.352 133.689 56.688ZM139.257 56.7C139.257 56.204 139.157 55.772 138.957 55.404C138.757 55.036 138.485 54.756 138.141 54.564C137.805 54.364 137.433 54.264 137.025 54.264C136.617 54.264 136.245 54.36 135.909 54.552C135.573 54.744 135.305 55.024 135.105 55.392C134.905 55.76 134.805 56.192 134.805 56.688C134.805 57.192 134.905 57.632 135.105 58.008C135.305 58.376 135.573 58.66 135.909 58.86C136.245 59.052 136.617 59.148 137.025 59.148C137.433 59.148 137.805 59.052 138.141 58.86C138.485 58.66 138.757 58.376 138.957 58.008C139.157 57.632 139.257 57.196 139.257 56.7ZM144.018 54.324V58.2C144.018 58.52 144.086 58.748 144.222 58.884C144.358 59.012 144.594 59.076 144.93 59.076H145.734V60H144.75C144.142 60 143.686 59.86 143.382 59.58C143.078 59.3 142.926 58.84 142.926 58.2V54.324H142.074V53.424H142.926V51.768H144.018V53.424H145.734V54.324H144.018ZM159.124 53.304C159.636 53.304 160.092 53.412 160.492 53.628C160.892 53.836 161.208 54.152 161.44 54.576C161.672 55 161.788 55.516 161.788 56.124V60H160.708V56.28C160.708 55.624 160.544 55.124 160.216 54.78C159.896 54.428 159.46 54.252 158.908 54.252C158.34 54.252 157.888 54.436 157.552 54.804C157.216 55.164 157.048 55.688 157.048 56.376V60H155.968V56.28C155.968 55.624 155.804 55.124 155.476 54.78C155.156 54.428 154.72 54.252 154.168 54.252C153.6 54.252 153.148 54.436 152.812 54.804C152.476 55.164 152.308 55.688 152.308 56.376V60H151.216V53.424H152.308V54.372C152.524 54.028 152.812 53.764 153.172 53.58C153.54 53.396 153.944 53.304 154.384 53.304C154.936 53.304 155.424 53.428 155.848 53.676C156.272 53.924 156.588 54.288 156.796 54.768C156.98 54.304 157.284 53.944 157.708 53.688C158.132 53.432 158.604 53.304 159.124 53.304ZM163.651 56.688C163.651 56.016 163.787 55.428 164.059 54.924C164.331 54.412 164.703 54.016 165.175 53.736C165.655 53.456 166.187 53.316 166.771 53.316C167.347 53.316 167.847 53.44 168.271 53.688C168.695 53.936 169.011 54.248 169.219 54.624V53.424H170.323V60H169.219V58.776C169.003 59.16 168.679 59.48 168.247 59.736C167.823 59.984 167.327 60.108 166.759 60.108C166.175 60.108 165.647 59.964 165.175 59.676C164.703 59.388 164.331 58.984 164.059 58.464C163.787 57.944 163.651 57.352 163.651 56.688ZM169.219 56.7C169.219 56.204 169.119 55.772 168.919 55.404C168.719 55.036 168.447 54.756 168.103 54.564C167.767 54.364 167.395 54.264 166.987 54.264C166.579 54.264 166.207 54.36 165.871 54.552C165.535 54.744 165.267 55.024 165.067 55.392C164.867 55.76 164.767 56.192 164.767 56.688C164.767 57.192 164.867 57.632 165.067 58.008C165.267 58.376 165.535 58.66 165.871 58.86C166.207 59.052 166.579 59.148 166.987 59.148C167.395 59.148 167.767 59.052 168.103 58.86C168.447 58.66 168.719 58.376 168.919 58.008C169.119 57.632 169.219 57.196 169.219 56.7ZM173.981 54.324V58.2C173.981 58.52 174.049 58.748 174.185 58.884C174.321 59.012 174.557 59.076 174.893 59.076H175.697V60H174.713C174.105 60 173.649 59.86 173.345 59.58C173.041 59.3 172.889 58.84 172.889 58.2V54.324H172.037V53.424H172.889V51.768H173.981V53.424H175.697V54.324H173.981ZM177.092 56.7C177.092 56.02 177.228 55.428 177.5 54.924C177.772 54.412 178.148 54.016 178.628 53.736C179.116 53.456 179.672 53.316 180.296 53.316C181.104 53.316 181.768 53.512 182.288 53.904C182.816 54.296 183.164 54.84 183.332 55.536H182.156C182.044 55.136 181.824 54.82 181.496 54.588C181.176 54.356 180.776 54.24 180.296 54.24C179.672 54.24 179.168 54.456 178.784 54.888C178.4 55.312 178.208 55.916 178.208 56.7C178.208 57.492 178.4 58.104 178.784 58.536C179.168 58.968 179.672 59.184 180.296 59.184C180.776 59.184 181.176 59.072 181.496 58.848C181.816 58.624 182.036 58.304 182.156 57.888H183.332C183.156 58.56 182.804 59.1 182.276 59.508C181.748 59.908 181.088 60.108 180.296 60.108C179.672 60.108 179.116 59.968 178.628 59.688C178.148 59.408 177.772 59.012 177.5 58.5C177.228 57.988 177.092 57.388 177.092 56.7ZM188.533 53.304C189.029 53.304 189.477 53.412 189.877 53.628C190.277 53.836 190.589 54.152 190.813 54.576C191.045 55 191.161 55.516 191.161 56.124V60H190.081V56.28C190.081 55.624 189.917 55.124 189.589 54.78C189.261 54.428 188.813 54.252 188.245 54.252C187.669 54.252 187.209 54.432 186.865 54.792C186.529 55.152 186.361 55.676 186.361 56.364V60H185.269V51.12H186.361V54.36C186.577 54.024 186.873 53.764 187.249 53.58C187.633 53.396 188.061 53.304 188.533 53.304ZM202.768 53.424L198.808 63.096H197.68L198.976 59.928L196.324 53.424H197.536L199.6 58.752L201.64 53.424H202.768ZM207.214 60.108C206.598 60.108 206.038 59.968 205.534 59.688C205.038 59.408 204.646 59.012 204.358 58.5C204.078 57.98 203.938 57.38 203.938 56.7C203.938 56.028 204.082 55.436 204.37 54.924C204.666 54.404 205.066 54.008 205.57 53.736C206.074 53.456 206.638 53.316 207.262 53.316C207.886 53.316 208.45 53.456 208.954 53.736C209.458 54.008 209.854 54.4 210.142 54.912C210.438 55.424 210.586 56.02 210.586 56.7C210.586 57.38 210.434 57.98 210.13 58.5C209.834 59.012 209.43 59.408 208.918 59.688C208.406 59.968 207.838 60.108 207.214 60.108ZM207.214 59.148C207.606 59.148 207.974 59.056 208.318 58.872C208.662 58.688 208.938 58.412 209.146 58.044C209.362 57.676 209.47 57.228 209.47 56.7C209.47 56.172 209.366 55.724 209.158 55.356C208.95 54.988 208.678 54.716 208.342 54.54C208.006 54.356 207.642 54.264 207.25 54.264C206.85 54.264 206.482 54.356 206.146 54.54C205.818 54.716 205.554 54.988 205.354 55.356C205.154 55.724 205.054 56.172 205.054 56.7C205.054 57.236 205.15 57.688 205.342 58.056C205.542 58.424 205.806 58.7 206.134 58.884C206.462 59.06 206.822 59.148 207.214 59.148ZM218.334 53.424V60H217.242V59.028C217.034 59.364 216.742 59.628 216.366 59.82C215.998 60.004 215.59 60.096 215.142 60.096C214.63 60.096 214.17 59.992 213.762 59.784C213.354 59.568 213.03 59.248 212.79 58.824C212.558 58.4 212.442 57.884 212.442 57.276V53.424H213.522V57.132C213.522 57.78 213.686 58.28 214.014 58.632C214.342 58.976 214.79 59.148 215.358 59.148C215.942 59.148 216.402 58.968 216.738 58.608C217.074 58.248 217.242 57.724 217.242 57.036V53.424H218.334ZM221.749 54.492C221.941 54.116 222.213 53.824 222.565 53.616C222.925 53.408 223.361 53.304 223.873 53.304V54.432H223.585C222.361 54.432 221.749 55.096 221.749 56.424V60H220.657V53.424H221.749V54.492ZM232.005 53.316C232.573 53.316 233.069 53.44 233.493 53.688C233.925 53.936 234.245 54.248 234.453 54.624V53.424H235.557V60.144C235.557 60.744 235.429 61.276 235.173 61.74C234.917 62.212 234.549 62.58 234.069 62.844C233.597 63.108 233.045 63.24 232.413 63.24C231.549 63.24 230.829 63.036 230.253 62.628C229.677 62.22 229.337 61.664 229.233 60.96H230.313C230.433 61.36 230.681 61.68 231.057 61.92C231.433 62.168 231.885 62.292 232.413 62.292C233.013 62.292 233.501 62.104 233.877 61.728C234.261 61.352 234.453 60.824 234.453 60.144V58.764C234.237 59.148 233.917 59.468 233.493 59.724C233.069 59.98 232.573 60.108 232.005 60.108C231.421 60.108 230.889 59.964 230.409 59.676C229.937 59.388 229.565 58.984 229.293 58.464C229.021 57.944 228.885 57.352 228.885 56.688C228.885 56.016 229.021 55.428 229.293 54.924C229.565 54.412 229.937 54.016 230.409 53.736C230.889 53.456 231.421 53.316 232.005 53.316ZM234.453 56.7C234.453 56.204 234.353 55.772 234.153 55.404C233.953 55.036 233.681 54.756 233.337 54.564C233.001 54.364 232.629 54.264 232.221 54.264C231.813 54.264 231.441 54.36 231.105 54.552C230.769 54.744 230.501 55.024 230.301 55.392C230.101 55.76 230.001 56.192 230.001 56.688C230.001 57.192 230.101 57.632 230.301 58.008C230.501 58.376 230.769 58.66 231.105 58.86C231.441 59.052 231.813 59.148 232.221 59.148C232.629 59.148 233.001 59.052 233.337 58.86C233.681 58.66 233.953 58.376 234.153 58.008C234.353 57.632 234.453 57.196 234.453 56.7ZM240.75 60.108C240.134 60.108 239.574 59.968 239.07 59.688C238.574 59.408 238.182 59.012 237.894 58.5C237.614 57.98 237.474 57.38 237.474 56.7C237.474 56.028 237.618 55.436 237.906 54.924C238.202 54.404 238.602 54.008 239.106 53.736C239.61 53.456 240.174 53.316 240.798 53.316C241.422 53.316 241.986 53.456 242.49 53.736C242.994 54.008 243.39 54.4 243.678 54.912C243.974 55.424 244.122 56.02 244.122 56.7C244.122 57.38 243.97 57.98 243.666 58.5C243.37 59.012 242.966 59.408 242.454 59.688C241.942 59.968 241.374 60.108 240.75 60.108ZM240.75 59.148C241.142 59.148 241.51 59.056 241.854 58.872C242.198 58.688 242.474 58.412 242.682 58.044C242.898 57.676 243.006 57.228 243.006 56.7C243.006 56.172 242.902 55.724 242.694 55.356C242.486 54.988 242.214 54.716 241.878 54.54C241.542 54.356 241.178 54.264 240.786 54.264C240.386 54.264 240.018 54.356 239.682 54.54C239.354 54.716 239.09 54.988 238.89 55.356C238.69 55.724 238.59 56.172 238.59 56.7C238.59 57.236 238.686 57.688 238.878 58.056C239.078 58.424 239.342 58.7 239.67 58.884C239.998 59.06 240.358 59.148 240.75 59.148ZM245.63 56.688C245.63 56.016 245.766 55.428 246.038 54.924C246.31 54.412 246.682 54.016 247.154 53.736C247.634 53.456 248.166 53.316 248.75 53.316C249.326 53.316 249.826 53.44 250.25 53.688C250.674 53.936 250.99 54.248 251.198 54.624V53.424H252.302V60H251.198V58.776C250.982 59.16 250.658 59.48 250.226 59.736C249.802 59.984 249.306 60.108 248.738 60.108C248.154 60.108 247.626 59.964 247.154 59.676C246.682 59.388 246.31 58.984 246.038 58.464C245.766 57.944 245.63 57.352 245.63 56.688ZM251.198 56.7C251.198 56.204 251.098 55.772 250.898 55.404C250.698 55.036 250.426 54.756 250.082 54.564C249.746 54.364 249.374 54.264 248.966 54.264C248.558 54.264 248.186 54.36 247.85 54.552C247.514 54.744 247.246 55.024 247.046 55.392C246.846 55.76 246.746 56.192 246.746 56.688C246.746 57.192 246.846 57.632 247.046 58.008C247.246 58.376 247.514 58.66 247.85 58.86C248.186 59.052 248.558 59.148 248.966 59.148C249.374 59.148 249.746 59.052 250.082 58.86C250.426 58.66 250.698 58.376 250.898 58.008C251.098 57.632 251.198 57.196 251.198 56.7ZM255.72 51.12V60H254.628V51.12H255.72ZM260.389 60.108C259.885 60.108 259.433 60.024 259.033 59.856C258.633 59.68 258.317 59.44 258.085 59.136C257.853 58.824 257.725 58.468 257.701 58.068H258.829C258.861 58.396 259.013 58.664 259.285 58.872C259.565 59.08 259.929 59.184 260.377 59.184C260.793 59.184 261.121 59.092 261.361 58.908C261.601 58.724 261.721 58.492 261.721 58.212C261.721 57.924 261.593 57.712 261.337 57.576C261.081 57.432 260.685 57.292 260.149 57.156C259.661 57.028 259.261 56.9 258.949 56.772C258.645 56.636 258.381 56.44 258.157 56.184C257.941 55.92 257.833 55.576 257.833 55.152C257.833 54.816 257.933 54.508 258.133 54.228C258.333 53.948 258.617 53.728 258.985 53.568C259.353 53.4 259.773 53.316 260.245 53.316C260.973 53.316 261.561 53.5 262.009 53.868C262.457 54.236 262.697 54.74 262.729 55.38H261.637C261.613 55.036 261.473 54.76 261.217 54.552C260.969 54.344 260.633 54.24 260.209 54.24C259.817 54.24 259.505 54.324 259.273 54.492C259.041 54.66 258.925 54.88 258.925 55.152C258.925 55.368 258.993 55.548 259.129 55.692C259.273 55.828 259.449 55.94 259.657 56.028C259.873 56.108 260.169 56.2 260.545 56.304C261.017 56.432 261.401 56.56 261.697 56.688C261.993 56.808 262.245 56.992 262.453 57.24C262.669 57.488 262.781 57.812 262.789 58.212C262.789 58.572 262.689 58.896 262.489 59.184C262.289 59.472 262.005 59.7 261.637 59.868C261.277 60.028 260.861 60.108 260.389 60.108Z" fill="#0A925B"/>
</svg>
